<svg width="85" height="30" fill="none" xmlns="http://www.w3.org/2000/svg"><path d="M11.764 4.62v12.364H8.266v-4.822H3.497v4.822H0V4.62h3.497v4.645h4.77V4.62h3.497zM24.563 12.215c0 .024-.017.3-.053.83h-6.959c.142.495.412.877.813 1.148.412.26.924.389 1.536.389.46 0 .854-.065 1.184-.195.341-.13.683-.341 1.024-.635l1.767 1.837c-.93 1.036-2.29 1.554-4.08 1.554-1.12 0-2.103-.212-2.95-.636-.848-.424-1.508-1.013-1.979-1.766-.459-.754-.688-1.608-.688-2.561 0-.942.223-1.784.67-2.526a4.794 4.794 0 011.89-1.767c.801-.423 1.702-.635 2.703-.635.954 0 1.82.2 2.597.6.777.389 1.39.96 1.837 1.713.459.742.688 1.625.688 2.65zM19.46 9.636c-.518 0-.954.147-1.307.442-.342.294-.56.694-.654 1.2h3.921c-.094-.506-.318-.906-.67-1.2-.342-.295-.772-.442-1.29-.442zM26.817 3.878h3.356v13.106h-3.356V3.878zM33.06 3.878h3.357v13.106H33.06V3.878zM3.171 28.397H1.405l-.337.815H.166l1.696-3.804h.87l1.7 3.804h-.924l-.337-.815zm-.277-.669l-.603-1.456-.603 1.456h1.206zM9.87 28.495V30h-.814v-.788H6.37V30h-.815l.005-1.505h.152c.228-.008.39-.174.484-.5.094-.326.152-.792.174-1.397l.043-1.19h2.924v3.087h.533zm-2.722-1.816a8.053 8.053 0 01-.114 1.142c-.058.304-.147.529-.266.674h1.7v-2.37H7.165l-.016.554zM13.24 29.277a2.22 2.22 0 01-1.054-.25 1.938 1.938 0 01-.739-.7c-.177-.302-.266-.64-.266-1.017 0-.377.089-.714.266-1.011.181-.3.428-.534.74-.701.315-.17.668-.256 1.06-.256.329 0 .626.058.89.174.269.116.493.283.674.5l-.565.522a1.215 1.215 0 00-.956-.446c-.236 0-.446.053-.63.158-.186.102-.33.245-.436.43a1.289 1.289 0 00-.152.63c0 .235.051.446.152.63.105.185.25.33.435.435.185.102.395.152.63.152.381 0 .7-.15.957-.45l.565.52c-.18.222-.405.39-.674.506a2.238 2.238 0 01-.896.174zM17.836 27.68h-.608v1.532h-.875v-3.804h.875v1.538h.63l1-1.538h.93l-1.245 1.837 1.282 1.967h-1l-.989-1.533zM21.216 25.408h.875v2.478l1.815-2.478h.827v3.804h-.87v-2.473l-1.815 2.473h-.832v-3.804zM26.658 25.408h.875v2.478l1.815-2.478h.826v3.804h-.87v-2.473l-1.814 2.473h-.832v-3.804zm1.755-.245c-.695 0-1.047-.277-1.054-.832h.603c.008.265.158.397.451.397.145 0 .256-.032.332-.098.076-.068.116-.168.12-.299h.603c-.004.272-.093.479-.267.62-.174.141-.436.212-.788.212zM37.193 28.397h-1.766l-.337.815h-.902l1.695-3.804h.87l1.701 3.804h-.924l-.337-.815zm-.277-.669l-.603-1.456-.603 1.456h1.206zM43.426 25.408v3.804h-.88v-1.56h-1.729v1.56h-.88v-3.804h.88v1.5h1.729v-1.5h.88zM48.037 26.125h-1.81l.006 3.087h-.875v-3.804h2.684l-.005.717zM52.476 25.408v3.804h-.87v-3.087h-1.304l-.027.794c-.018.54-.061.978-.13 1.315-.07.333-.185.59-.348.771-.16.178-.384.267-.674.267-.12 0-.264-.02-.435-.06l.055-.745c.047.015.1.022.157.022.21 0 .357-.123.44-.37.084-.25.136-.639.158-1.168l.054-1.543h2.924zM54.405 25.408h.875v2.478l1.815-2.478h.826v3.804h-.87v-2.473l-1.815 2.473h-.831v-3.804zM59.846 25.408h.876v2.478l1.815-2.478h.826v3.804h-.87v-2.473l-1.815 2.473h-.831v-3.804zm1.756-.245c-.696 0-1.047-.277-1.054-.832h.603c.007.265.157.397.45.397.146 0 .256-.032.332-.098.077-.068.116-.168.12-.299h.603c-.003.272-.092.479-.266.62-.174.141-.437.212-.788.212zM67.087 29.277a2.22 2.22 0 01-1.054-.25 1.938 1.938 0 01-.74-.7c-.177-.302-.266-.64-.266-1.017a1.886 1.886 0 011.005-1.712c.316-.17.67-.256 1.06-.256.33 0 .627.058.892.174.268.116.493.283.674.5l-.565.522a1.215 1.215 0 00-.957-.446c-.235 0-.445.053-.63.158-.185.102-.33.245-.435.43a1.289 1.289 0 00-.152.63c0 .235.05.446.152.63.105.185.25.33.435.435.184.102.395.152.63.152.38 0 .7-.15.957-.45l.565.52c-.181.222-.406.39-.674.506a2.237 2.237 0 01-.897.174zM71.683 27.68h-.609v1.532H70.2v-3.804h.875v1.538h.63l1-1.538h.93l-1.245 1.837 1.283 1.967h-1l-.99-1.533zM75.063 25.408h.875v2.478l1.815-2.478h.826v3.804h-.87v-2.473l-1.815 2.473h-.831v-3.804zM80.504 25.408h.875v2.478l1.816-2.478h.826v3.804h-.87v-2.473l-1.815 2.473h-.832v-3.804zm1.756-.245c-.696 0-1.047-.277-1.055-.832h.604c.007.265.157.397.45.397.146 0 .256-.032.332-.098.077-.068.116-.168.12-.299h.603c-.003.272-.092.479-.266.62-.174.141-.437.212-.788.212zM69.71 14.281v2.703h-9.927V4.62h9.697v2.702h-6.235v2.084h5.493v2.614h-5.493v2.261h6.464zM84.12 4.62v12.364h-2.879l-5.458-6.589v6.589h-3.426V4.62h2.879l5.458 6.588V4.62h3.426z" fill="#111518"/><g clip-path="url(#clip0)" fill="#FF6B09"><path d="M54.839 10.576c-.181-.405-.43-.804-.794-1.264-.919-1.156-1.2-3.733-1.202-3.758a.311.311 0 00-.215-.263.316.316 0 00-.33.09c-1.096 1.227-.635 3.121-.386 3.878.068.208.143.452.196.699.405 2-.377 2.905-.56 3.087-.178.05-.3.025-.412-.096-.386-.423-.513-1.81-.333-3.618a3.698 3.698 0 00-.025-1.008c-.38-2.222-1.777-3.647-2.132-4.147C47.668 2.729 47.568.322 47.566.3a.31.31 0 00-.486-.244c-1.632 1.11-1.492 3.783-1.265 5.276.053.346.156.698.334 1.143.632 1.592-.125 3.647-.131 3.665-.007.019-.013.034-.016.053-.096.507-.258.81-.439.81a.213.213 0 01-.06-.01c-.22-.046-.335-.281-.339-.485-.012-2.636-2.655-3.523-2.683-3.532a.31.31 0 00-.33.092.304.304 0 00-.044.34c.031.065.13.35.062 1.354-.059.902-.224 1.795-.489 2.652a12.928 12.928 0 00-.523 4.088c.484 5.263 8.047 6.185 12.536 3.22a4.54 4.54 0 001.19-1.103c1.656-2.287.681-5.393-.044-7.043zm-11.505 5.028a.309.309 0 01-.293.325h-.019a.31.31 0 01-.311-.291c-.028-.451-.022-.924.013-1.437a.311.311 0 01.623.043c-.035.489-.041.934-.013 1.36zm.152-2.738a.309.309 0 01-.308.272c-.012 0-.025 0-.04-.003a.312.312 0 01-.271-.343l.15-1.193a.314.314 0 01.348-.269.31.31 0 01.27.346l-.149 1.19zM52.68 4.225a.309.309 0 01-.26-.352c.019-.125.131-.768.436-1.09a.313.313 0 01.44-.015.307.307 0 01.015.437c-.13.137-.24.528-.276.762a.311.311 0 01-.356.258zM41.359 5.763c-.06-.23-.208-.608-.35-.732a.307.307 0 01-.029-.436.312.312 0 01.44-.028c.335.291.51.92.542 1.043a.312.312 0 01-.603.154z"/></g><defs><clipPath id="clip0"><path fill="#fff" transform="translate(40.883)" d="M0 0h14.946v20.381H0z"/></clipPath></defs></svg>