<svg aria-hidden="true" style="position:absolute;width:0;height:0" xmlns="http://www.w3.org/2000/svg" overflow="hidden">
    <defs>
        <symbol id="icon-audio-book" viewBox="0 0 39 32">
            <path
                d="M3.048 29.453h12.23a3.738 3.738 0 003.38 2.116h.772c1.465 0 2.761-.83 3.381-2.116h12.237a2.289 2.289 0 002.286-2.286V5.262a2.289 2.289 0 00-2.286-2.286h-1.234V1.955c0-.84-.684-1.524-1.524-1.524H5.799c-.84 0-1.524.683-1.524 1.524v1.021H3.048A2.289 2.289 0 00.762 5.262v21.905a2.289 2.289 0 002.286 2.286zm29.24-4.701H19.81V7.047c2.884.377 5.121 2.845 5.121 5.831v.687l-.181-.04a.759.759 0 00-.908.58l-1.213 5.519c-.09.41.17.816.58.907l2.621.578a1.946 1.946 0 002.319-1.492l.702-3.192a1.954 1.954 0 00-1.484-2.324l-.912-.201v-1.023c0-3.827-2.917-6.986-6.644-7.37V1.956h12.48l-.001 22.796zm-7.122-9.575l1.871.412a.422.422 0 01.325.508l-.702 3.191a.45.45 0 01-.507.331l-1.874-.413.886-4.03zM5.798 1.956h12.487v3.55c-3.731.381-6.652 3.541-6.652 7.371v1.022l-.914.202a1.935 1.935 0 00-1.222.854c-.28.439-.373.961-.26 1.468l.7 3.188a1.96 1.96 0 002.325 1.495l2.61-.577a.762.762 0 00.58-.907l-1.213-5.519c-.043-.198-.164-.37-.334-.478s-.378-.144-.574-.102l-.174.038v-.686c0-2.988 2.24-5.458 5.128-5.832v17.706H5.798V1.953zm7.118 13.221l.887 4.029-1.863.411a.433.433 0 01-.512-.328l-.702-3.196a.42.42 0 01.323-.506l1.867-.412zM2.286 5.262c0-.42.341-.762.762-.762h1.227v20.252c0 .84.684 1.524 1.524 1.524H32.29c.84 0 1.524-.683 1.524-1.524V4.5h1.234c.42 0 .762.342.762.762v21.905c0 .42-.342.762-.762.762H22.294a.76.76 0 00-.728.538 2.22 2.22 0 01-2.135 1.577h-.772a2.229 2.229 0 01-2.138-1.586.762.762 0 00-.725-.529H3.049a.763.763 0 01-.762-.762V5.262z" />
        </symbol>
        <symbol id="icon-student" viewBox="0 0 27 32">
            <path
                d="M-.103 31.759h26.785c.133-3.055-.086-8.122-1.964-10.535l-.068-.087-4.104-2.06c.089-.301.133-.576.151-.778a1.43 1.43 0 00-.1-.678c-.677-1.62-2.11-2.472-2.898-2.836.24-.484.395-1.003.47-1.534.446-.126.805-.479.923-.951l.479-1.946a1.314 1.314 0 00-.151-1.002 1.292 1.292 0 00-.294-.334c1.351-3.068-.911-5.96-1.035-6.113C15.641.256 12.547.752 12.383.781c-4.466.935-6.19 4.358-5.217 8.372a1.317 1.317 0 00-.302 1.2l.481 1.948c.117.468.473.82.916.948a5.014 5.014 0 001.152 2.559v1.543c-6.409 3.282-2.348 1.188-7.484 3.786-.01.048-2.41 2.599-2.053 10.159l.022.462zm25.854-.97h-4.408v-1.852l2.916-6.675c1.461 2.424 1.515 7.053 1.493 8.526zm-6.016-12.573c-.17 1.954-1.242 1.364-1.903 2.869-.52-.572-.677-1.258-.537-1.993.253-1.349-.57-1.749-.367-3.166l.031-.032v-.005c.018-.02.18-.213.227-.274 1.744.76 2.584 2.174 2.55 2.6zm-9.356-1.536a4.963 4.963 0 005.574.074c.112 1.114.547 1.337.393 2.157a3.536 3.536 0 00-.054.45l-3.002 3.384-3.838-4.327.926-.484V16.68zm-1.207-4.14v-1.876-3.296c.467-.864 1.104-1.491 1.896-1.866 2.12 1.2 4.56 2.99 6.197 4.791-.002 2.294.006 2.301-.009 2.489l-.001.012c-.128 2.083-1.841 3.811-4.038 3.811-2.136 0-3.909-1.677-4.037-3.831a2.578 2.578 0 01-.008-.233zm-.598 6.346l4.716 5.317 3.166-3.569c.072.208.174.405.29.595l-3.456 4.322-5.154-6.446.438-.22zm9.656-7.127v-1.498l.36-.413c.02.758.102-.137-.36 1.911zM12.562 1.734c.192.012 2.765-.391 4.799 1.804.08.1 1.736 2.234 1.071 4.567-.228-1.038-.625-2.369-1.252-3.004l-.686.683c.619.627 1.026 2.537 1.181 3.527-2.84-2.972-6.504-4.853-6.555-4.885-.184.114-1.734.409-2.86 2.598l-.054.105v1.607l-.142.002c-.716-3.454.655-6.198 4.497-7.004zm-4.6 8.002l.244.987v1.038l-.405-1.639c-.059-.244.122-.337.161-.386zm-.71 9.814l6.038 7.551 4.085-5.109c.444.398.658.454 1.6.939l-.318-1.078c-.081-.274.239-.713.431-.914.43-.233.789-.566 1.057-.977l3.333 1.674-3.101 7.1v2.055H6.201v-2.055l-3.103-7.099 4.153-2.085zM2.32 22.265l2.916 6.673v1.852H.828c-.022-1.473.033-6.099 1.492-8.524z" />
        </symbol>
        <symbol id="icon-group" viewBox="0 0 33 32">
            <path
                d="M1.993 12.558v2.831a.5.5 0 00.189.39 11.099 11.099 0 006.837 2.362c.74 0 1.482-.077 2.206-.224a12.01 12.01 0 004.89 1.032c1.707 0 3.351-.349 4.89-1.032 3.091.624 6.384-.046 9.042-2.138a.495.495 0 00.189-.39v-2.831a1.2 1.2 0 00-.575-1.027l-3.867-2.176c.846-1.073 1.476-2.602 1.586-3.913.321-2.256-1.518-4.646-4.166-4.646a4.208 4.208 0 00-2.948 1.227c-.027.027-.058.049-.084.076-.024.025-.043.054-.067.08-.016.017-.029.036-.044.053C19.314.852 17.86 0 16.147 0c-.166 0-.33.011-.492.028-.01-.001-.018-.006-.028-.006-.092 0-.287.024-.391.054-.015.004-.026.015-.041.021a4.485 4.485 0 00-3.013 2.156A4.176 4.176 0 009.003.796c-3.908 0-5.642 4.612-2.557 8.581l-3.903 2.167a1.192 1.192 0 00-.553 1.014zm19.003 4.27c-.084.041-.167.085-.251.123l-.002.001a11.007 11.007 0 01-4.627 1.006 11.023 11.023 0 01-6.674-2.228v-2.87c0-.098.047-.184.102-.221l4.542-2.524c.565.48 1.287.832 2.035.832.721 0 1.499-.357 2.052-.843l4.487 2.52c.083.053.13.139.13.237v2.87c-.571.429-1.173.795-1.794 1.098zm8.158-4.446a.201.201 0 01.092.176v2.587a9.986 9.986 0 01-6.737 1.98c.369-.23.771-.516 1.083-.76a.496.496 0 00.19-.39v-3.114c0-.435-.218-.835-.61-1.087l-2.383-1.339.58-.321c.703.573 1.307.744 1.848.744.663 0 1.36-.325 1.878-.759l4.06 2.284zM23.216 1.788c1.38 0 2.593.902 3.021 2.142A3.703 3.703 0 0124 2.788a.494.494 0 00-.788.084 3.684 3.684 0 01-2.548 1.76v-.003a4.786 4.786 0 00-.162-1.329c.563-.902 1.609-1.513 2.713-1.513zm-2.66 3.856a4.642 4.642 0 003.164-1.762 4.684 4.684 0 002.702 1.056c-.007 1.792-1.471 4.927-3.206 4.927-1.337 0-2.479-1.912-2.905-3.238a8.15 8.15 0 00.245-.983zm.101 3.729l-.886.491-.895-.502c.332-.413.636-.893.896-1.413.25.526.55 1.01.884 1.425zM19.32 6.465c-.478 1.427-1.705 3.49-3.199 3.49-1.742 0-3.226-2.864-3.509-4.696.075-.019 2.43.126 4.049-2.001.822.688 1.932 1.143 3.011 1.188.013.647-.144 1.406-.352 2.018zM16.15.992c2.78 0 3.309 2.392 3.352 2.442a4.123 4.123 0 01-2.563-1.276.497.497 0 00-.789.087 4.073 4.073 0 01-3.58 2.022c.136-1.822 1.596-3.274 3.58-3.274zm-3.689 6.946c.257.515.563 1.006.913 1.438l-.875.487-.907-.51a7.76 7.76 0 00.87-1.415zm-3.455-6.15c1.125 0 2.155.571 2.729 1.514-.029.1-.106.498-.117.548a3.675 3.675 0 01-1.821-1.062.496.496 0 00-.788.086 3.712 3.712 0 01-3.177 1.815c.158-1.627 1.518-2.9 3.174-2.9zm-3.13 3.89a4.711 4.711 0 003.643-1.796 4.629 4.629 0 002.055.961c.029.575.179 1.273.35 1.789-.274.84-.799 1.841-1.451 2.505l-.014.01c-.408.43-.988.719-1.444.719-1.594 0-2.841-2.508-3.14-4.188zm-2.891 6.88c0-.075.033-.139.067-.162l4.116-2.284c.247.206.304.229.353.265.484.322.928.482 1.534.482.645 0 1.232-.273 1.749-.694.029-.023.06-.045.088-.068l.587.33-2.446 1.361a1.269 1.269 0 00-.584 1.071v3.114c0 .152.07.296.19.39.317.249.727.539 1.083.761a10.024 10.024 0 01-6.737-1.98v-2.587z" />
            <path
                d="M31.259 20.781a2.063 2.063 0 00-2.007-.11l-6.119 2.956a2.111 2.111 0 00-2.107-2.072l-3.509.001c-1.73-1.504-3.941-2.425-5.952-2.473-1.983-.047-3.763-.06-4.593-.064v-1.002H0v11.517h6.972v-1.379C8.884 29.252 13.911 32 16.297 32c.054 0 .107-.001.158-.004 4.196-.235 14.091-7.198 14.743-7.661a2.08 2.08 0 001.034-1.796c0-.719-.364-1.376-.973-1.758zM5.98 28.542H.992v-9.533H5.98v9.533zm24.707-5.058a.296.296 0 00-.044.028c-.102.073-10.281 7.271-14.244 7.494a2.354 2.354 0 01-.121.003c-2.092 0-7.194-2.753-9.307-4.001v-6.997c.827.004 2.597.017 4.569.064 1.837.044 3.876.921 5.456 2.346l.141.128 3.887-.001c.617 0 1.119.502 1.119 1.119s-.502 1.119-1.119 1.119h-7.142v.992h7.142c.684 0 1.288-.333 1.674-.839l6.984-3.373c.343-.167.725-.146 1.049.057s.508.537.508.918c0 .391-.212.753-.553.945zM16.612 12.158h-.992v.92h.992v-.92zM16.612 13.992h-.992v.92h.992v-.92zM16.612 15.826h-.992v.92h.992v-.92z" />
        </symbol>
        <symbol id="icon-open-book" viewBox="0 0 42 32">
            <path
                d="M19.086 3.95H7.395v.875h11.691V3.95zM19.086 7.213h-9.94v.875h9.94v-.875zM19.086 10.478H7.395v.875h11.691v-.875zM19.086 13.742h-9.94v.875h9.94v-.875zM19.086 17.005H7.395v.875h11.691v-.875zM19.086 20.27h-9.94v.875h9.94v-.875zM35.134 3.95H23.443v.875h11.691V3.95zM33.384 7.213h-9.94v.875h9.94v-.875zM35.134 10.478H23.443v.875h11.691v-.875zM33.384 13.742h-9.94v.875h9.94v-.875zM35.134 17.005H23.443v.875h11.691v-.875zM33.384 20.27h-9.94v.875h9.94v-.875z" />
            <path
                d="M39.356 2.953h-1.605V.543a.438.438 0 00-.438-.438H24.229c-1.277 0-2.384.69-2.964 1.724A3.387 3.387 0 0018.3.105H5.216a.438.438 0 00-.438.438v2.41H3.173a.438.438 0 00-.438.438v23.495c0 .242.196.438.438.438h36.182a.438.438 0 00.438-.438V3.391a.438.438 0 00-.438-.438zM24.229.98h12.646v23.443h-13.58c-.602 0-1.204.254-1.593.583V3.501A2.513 2.513 0 0124.229.98zM5.654.98H18.3a2.506 2.506 0 012.522 2.425c.001.019.002.078.005.096v21.503a2.56 2.56 0 00-1.587-.581H5.654V.98zM3.611 3.829h1.167v21.032c0 .242.196.438.438.438h14.023c.667 0 1.312.438 1.518 1.149H3.61V3.828zm35.307 22.619H21.772a1.582 1.582 0 011.524-1.149h14.018a.438.438 0 00.438-.438V3.829h1.167v22.62z" />
        </symbol>
        <symbol id="icon-mobile-learning" viewBox="0 0 33 32">
            <path
                d="M30.175-.128H14.429a1.861 1.861 0 00-1.859 1.859v6.518L.872 13.159a.38.38 0 00-.049.678l1.492.893v9.515A1.719 1.719 0 00.98 25.919v.917c0 .21.171.381.381.381h2.671c.21 0 .381-.171.381-.381v-.917a1.72 1.72 0 00-1.336-1.673v-9.06l1.18.706c-.036.272-.005-.474-.017 4.43 0 1.612 4.129 2.476 8.33 2.525v7.425a1.858 1.858 0 001.858 1.856h15.746a1.859 1.859 0 001.857-1.857c0 .051-.002-1.573 0-28.54a1.87 1.87 0 00-1.856-1.859zM3.652 25.918v.536H1.743v-.536a.955.955 0 111.909 0zm26.523 5.446H14.429a1.096 1.096 0 01-1.096-1.094v-2.574h17.935v2.575c0 .597-.497 1.092-1.092 1.092zm1.092-4.429H13.332v-4.086c2.051-.023 8.335-.475 8.335-2.527-.002-3.081.005-4.33-.01-4.436l3.421-2.049a.382.382 0 00-.049-.678l-11.698-4.91V5.067h17.935v21.868zm-18.316-9.143c-2.113 0-6.182.273-7.949 1.427.011-3.53-.122-3.3.312-3.6 1.098-.809 4.238-1.373 7.637-1.373 1.482 0 7.954.408 7.954 1.778v3.195c-1.784-1.165-5.832-1.428-7.954-1.428zm.382-16.061c0-.604.491-1.095 1.095-1.095h15.746c.604 0 1.093.498 1.093 1.095v2.574H13.332V1.731zm-.382 7.184l11.09 4.655-2.748 1.644c-1.461-1.449-6.294-1.73-8.342-1.73-2.051 0-6.884.282-8.342 1.73L1.86 13.569l11.091-4.655zM5.002 20.321c0-.617 2.73-1.767 7.949-1.767 5.222 0 7.954 1.151 7.954 1.767s-2.732 1.768-7.954 1.768c-5.219 0-7.949-1.151-7.949-1.768z" />
            <path
                d="M22.301 28.271a1.261 1.261 0 000 2.52 1.261 1.261 0 000-2.52zm0 1.759a.499.499 0 11.002-.998.499.499 0 01-.002.998zM23.754 2.09h-2.906v.762h2.906V2.09z" />
        </symbol>
        <symbol id="icon-study-program" viewBox="0 0 31 32">
            <path
                d="M30.151 4.961l-.001-.002a.32.32 0 00-.06-.09L25.284.063a.258.258 0 00-.041-.033l-.009-.006c-.012-.007-.024-.014-.036-.019L25.187 0a.277.277 0 00-.099-.02H3.912a.284.284 0 00-.284.284v29.311c0 .019.002.037.006.056l.007.023.009.03.014.026.013.023c.01.014.021.028.033.04l.003.003 2.165 2.164c.111.111.29.111.402 0l1.964-1.963 1.964 1.963c.055.056.128.083.201.083s.145-.027.201-.083l1.963-1.963 1.965 1.963a.284.284 0 00.402 0l1.963-1.963 1.963 1.963a.283.283 0 00.401 0l1.965-1.963 1.964 1.963c.055.056.128.083.201.083s.145-.027.201-.083l1.963-1.963 1.965 1.963a.283.283 0 00.401 0l2.165-2.164.011-.014.024-.029c.007-.009.011-.02.016-.03.003-.007.007-.012.009-.019.006-.013.009-.026.012-.039l.005-.013a.286.286 0 00.006-.058V5.071a.296.296 0 00-.023-.109zM25.367.949l3.836 3.835h-3.836V.949zm4.237 28.507l-1.88 1.88-1.965-1.963a.283.283 0 00-.401 0l-1.963 1.963-1.964-1.963a.284.284 0 00-.402 0l-1.965 1.963-1.963-1.962v-.001a.284.284 0 00-.402 0l-1.963 1.963-1.965-1.963a.284.284 0 00-.402 0l-1.963 1.963-1.964-1.963a.284.284 0 00-.402 0l-1.965 1.963-1.88-1.88V.547h20.603v4.522c0 .157.127.284.284.284h4.521v24.103z" />
            <path
                d="M6.314 3.234h9.303a.284.284 0 100-.568H6.314a.284.284 0 100 .568zM6.314 4.991h14.919a.284.284 0 100-.568H6.314a.284.284 0 100 .568zM6.03 6.568v9.199c0 .157.127.284.284.284h21.172a.284.284 0 00.284-.284V6.568a.284.284 0 00-.284-.284H6.314a.284.284 0 00-.284.284zm6.278.284h14.893v2.445H12.308V6.852zm0 3.013h14.893v2.444H12.308V9.865zm0 3.012h14.893v2.605H12.308v-2.605zm-5.71-6.025h5.142v2.445H6.598V6.852zm0 3.013h5.142v2.444H6.598V9.865zm0 3.012h5.142v2.605H6.598v-2.605zM27.486 17.329H6.314a.284.284 0 00-.284.284v9.198a.284.284 0 10.568 0v-2.889h5.142v2.889a.284.284 0 10.568 0v-2.889h14.893v2.889a.284.284 0 10.568 0v-9.198a.282.282 0 00-.283-.284zM11.74 23.354H6.598v-2.443h5.142v2.443zm0-3.012H6.598v-2.444h5.142v2.444zm15.461 3.012H12.308v-2.443h14.893v2.443zm0-3.012H12.308v-2.444h14.893v2.444zM2.281-.021a.284.284 0 00-.284.284v29.311a.284.284 0 10.568 0V.263a.284.284 0 00-.284-.284zM.718-.021a.284.284 0 00-.284.284v29.311a.284.284 0 10.568 0V.263a.284.284 0 00-.284-.284z" />
        </symbol>
        <symbol id="icon-phone" viewBox="0 0 30 29">
            <path d="M4.366.002a1.879 1.879 0 00-1.305.61L.628 3.288c.004-.008-.01-.007-.078.09a.59.59 0 00-.085.166c-.99 3.154-.326 6.623 1.29 9.922 1.618 3.3 4.196 6.457 7.157 9.048 2.96 2.591 6.301 4.618 9.486 5.624 3.186 1.005 6.274.992 8.563-.668a.595.595 0 00.07-.061c.06-.06.062-.068.052-.059l.01-.011 2.42-2.662a1.894 1.894 0 00-.126-2.663l-5.742-5.223a1.894 1.894 0 00-2.663.125l-2.598 2.857c-2.11-.61-3.913-1.646-5.647-3.223-1.734-1.578-2.936-3.276-3.743-5.319l2.597-2.857a1.894 1.894 0 00-.124-2.663L5.724.487A1.88 1.88 0 004.366.002zm.054 1.172a.703.703 0 01.507.189l5.743 5.223a.69.69 0 01.047.994l-2.872 3.156a.59.59 0 00-.116.599c.871 2.378 2.277 4.33 4.211 6.089 1.935 1.76 4.008 2.975 6.458 3.618a.59.59 0 00.587-.174l2.872-3.156a.69.69 0 01.994-.047l5.744 5.223a.69.69 0 01.046.994l-2.401 2.64c-1.878 1.347-4.524 1.423-7.487.487-2.975-.939-6.204-2.884-9.062-5.385-2.858-2.501-5.345-5.556-6.874-8.676C1.304 9.86.755 6.738 1.587 3.987l2.346-2.578a.702.702 0 01.487-.235z" />
        </symbol>
    </defs>
</svg>